<svg xmlns="http://www.w3.org/2000/svg" viewBox="0 0 1100.05 1214.25"><defs><style>.cls-1{fill:#07074e;}</style></defs><title>reduzido-primary</title><g id="logo_horizontal_primary" data-name="logo horizontal primary"><path class="cls-1" d="M530.24,400.11a220.73,220.73,0,0,1,68.31-13.59,218.09,218.09,0,0,1,102.08,20.56,27.6,27.6,0,0,0,23.42-50,276.79,276.79,0,0,0-213-8.74,27.6,27.6,0,0,0,19.21,51.75Z"/><path class="cls-1" d="M800.24,272.45a27.6,27.6,0,0,0-27.63,47.78A335,335,0,0,1,878.31,417a27.6,27.6,0,1,0,45.16-31.73A390.64,390.64,0,0,0,800.24,272.45Z"/><path class="cls-1" d="M1100,908.94a138,138,0,0,0-235.68-92.07,27.69,27.69,0,0,0-4.23,4A331,331,0,1,1,695,287.74a27.58,27.58,0,0,0,16.47-52.61,384.18,384.18,0,0,0-70-12.85l-.33,0c-3-.26-6-.48-9-.68l-.78,0q-9.24-.57-18.59-.7l-2.1,0c-2.34,0-4.69,0-7,0l-2.49,0c-2.85,0-5.71.12-8.57.23h-.43A383.81,383.81,0,0,0,323.53,344.76c-.2.21-.38.43-.58.64q-2.94,3.19-5.81,6.44c-1.29,1.46-2.54,2.94-3.8,4.42-.79.91-1.59,1.82-2.36,2.74-1.66,2-3.28,4-4.9,6-.34.44-.71.86-1.05,1.3q-2.75,3.44-5.41,6.92l-.34.45q-11.32,14.88-21.1,30.67h0a383.65,383.65,0,0,0-57.11,217.83,27.59,27.59,0,0,1-26.5,28.65l-1.09,0a27.6,27.6,0,0,1-27.56-26.52c-4.07-104.59,28.26-205,91.56-286.81l.44-.57q4-5.19,8.23-10.29c.56-.67,1.1-1.35,1.66-2,.84-1,1.71-2,2.56-3s1.78-2.12,2.69-3.17c.39-.45.79-.89,1.18-1.33q1.74-2,3.5-4,2-2.19,3.92-4.34c.46-.5.9-1,1.35-1.5s1.17-1.22,1.75-1.84c1.45-1.56,2.92-3.1,4.39-4.64l3-3.11q2.22-2.26,4.45-4.48l3.31-3.24q2.06-2,4.14-4,1.92-1.83,3.88-3.63c1.15-1.07,2.31-2.12,3.48-3.18,1.57-1.42,3.15-2.84,4.74-4.24.82-.72,1.64-1.42,2.47-2.13,2-1.71,3.94-3.41,5.94-5.08l1-.81a436.91,436.91,0,0,1,211.77-95.85l.68-.1q4.74-.75,9.5-1.4l2-.25c2.76-.36,5.52-.71,8.3-1l.21,0a27.59,27.59,0,0,0-5.48-54.9l-4.25.49-3.35.41A494.71,494.71,0,0,0,260.05,251.79l-1.06,1q-7.5,7.38-14.7,15.08c-.87.93-1.74,1.87-2.6,2.81-1.3,1.41-2.6,2.82-3.88,4.24q-2.76,3.07-5.47,6.19-5,5.7-9.75,11.55c-.22.28-.45.56-.68.83-1.33,1.63-2.64,3.28-3.95,4.92l-1.33,1.68q-1.66,2.13-3.32,4.28l-1.91,2.49c-.92,1.21-1.82,2.42-2.73,3.63s-1.65,2.22-2.47,3.34l-2.13,2.93q-1.5,2.08-3,4.19c-.53.75-1.06,1.5-1.58,2.26q-1.74,2.47-3.43,5L195,329.87q-1.86,2.78-3.7,5.57-11.79,18-22,37.06a27.6,27.6,0,1,1-48.63-26.11,555.12,555.12,0,0,1,190.07-204.9,548.82,548.82,0,0,1,118-56.68l1.6-.54c1.82-.62,3.65-1.23,5.47-1.82l4.34-1.4,3.16-1q3.81-1.18,7.64-2.31l.15,0a548.91,548.91,0,0,1,98-19.42l.19,0c2.83-.29,5.66-.57,8.5-.82l.72-.07c2.68-.23,5.36-.45,8.05-.64l1.09-.09c2.71-.19,5.43-.37,8.15-.52l.9-.06c3-.16,6-.31,9.07-.43q6.72-.26,13.45-.35c1.92,0,3.83,0,5.74,0,2.55,0,5.1,0,7.66,0,2.18,0,4.36.08,6.54.12s4.64.1,7,.17c2.12.08,4.22.17,6.33.27,2.47.11,4.93.22,7.39.37,1.86.1,3.7.23,5.55.36q4.28.28,8.53.64l4.24.37q5.16.47,10.3,1c.8.09,1.61.17,2.41.27q6.36.72,12.69,1.6h.06c1.49.2,3,.38,4.47.6a27.6,27.6,0,0,0,8-54.61,612,612,0,0,0-112.49-6c-162,6.3-311.93,75.33-422.06,194.37S-5.83,468.68.47,630.72,75.8,942.66,194.84,1052.79C308,1157.43,453.33,1214.26,606.55,1214.25c8,0,16.11-.15,24.18-.47a605.32,605.32,0,0,0,428.8-201.8A137.64,137.64,0,0,0,1100,908.94Z"/><path class="cls-1" d="M449.27,413.4a27.6,27.6,0,0,0-39,.36,277.06,277.06,0,0,0-78.86,204.09C337.15,766.27,459.72,883.1,607,883.09c3.6,0,7.24-.07,10.87-.21a273.12,273.12,0,0,0,122.76-34.17,27.59,27.59,0,1,0-26.72-48.29,220.8,220.8,0,0,1-264.27-348A27.6,27.6,0,0,0,449.27,413.4Z"/><path class="cls-1" d="M978.61,356.07c3,4.09,6.59,7.84,9.75,11.81a27.6,27.6,0,1,0,43.16-34.4c-3.56-4.47-7.42-8.79-11-13.28C928.49,203.35,782.79,124.59,653.93,112.55a27.59,27.59,0,0,0-5.13,55C763.29,178.2,902.4,253.38,978.61,356.07Z"/><path class="cls-1" d="M776.54,77.3c67.12,22.26,158.55,72.17,228.77,142.85,4.69,4.71,11.14,6.61,17.3,6.8a27.53,27.53,0,0,0,21.64-9.43c10-11.48,7.89-27.91-2.63-38.94C980.71,114.75,867.4,50.88,794.94,25.26a27.6,27.6,0,0,0-35.22,16.82C754.64,56.45,762.07,72.5,776.54,77.3Z"/></g></svg>